<?xml version="1.0" encoding="UTF-8"?>
<!--Generator: Apple Native CoreSVG 326-->
<!DOCTYPE svg
PUBLIC "-//W3C//DTD SVG 1.1//EN"
       "http://www.w3.org/Graphics/SVG/1.1/DTD/svg11.dtd">
<svg version="1.1" xmlns="http://www.w3.org/2000/svg" xmlns:xlink="http://www.w3.org/1999/xlink" viewBox="0 0 25.4314 25.0897">
 <g>
  <rect height="25.0897" opacity="0" width="25.4314" x="0" y="0"/>
  <path d="M12.5302 25.0701C19.4518 25.0701 25.0701 19.4615 25.0701 12.5399C25.0701 5.61836 19.4518 0 12.5302 0C5.60859 0 0 5.61836 0 12.5399C0 19.4615 5.60859 25.0701 12.5302 25.0701ZM12.5302 23.6927C6.36553 23.6927 1.37744 18.7046 1.37744 12.5399C1.37744 6.37227 6.36553 1.38418 12.5302 1.38418C18.6979 1.38418 23.6859 6.37227 23.6859 12.5399C23.6859 18.7046 18.6979 23.6927 12.5302 23.6927Z" fill="black" fill-opacity="0.85"/>
  <path d="M6.61836 18.9923L18.4285 18.9923C18.8142 18.9923 18.9775 18.7538 18.9775 18.3816C18.9775 16.9926 16.9193 13.2743 12.5234 13.2743C8.13731 13.2743 6.0791 16.9926 6.0791 18.3816C6.0791 18.7538 6.23574 18.9923 6.61836 18.9923ZM12.5234 12.252C14.3045 12.2587 15.734 10.7571 15.734 8.75147C15.734 6.86904 14.3045 5.3126 12.5234 5.3126C10.7454 5.3126 9.31592 6.86904 9.31592 8.75147C9.31592 10.7571 10.7454 12.2452 12.5234 12.252Z" fill="black" fill-opacity="0.85"/>
 </g>
</svg>
