<?xml version="1.0" encoding="UTF-8"?>
<!--Generator: Apple Native CoreSVG 326-->
<!DOCTYPE svg
PUBLIC "-//W3C//DTD SVG 1.1//EN"
       "http://www.w3.org/Graphics/SVG/1.1/DTD/svg11.dtd">
<svg version="1.1" xmlns="http://www.w3.org/2000/svg" xmlns:xlink="http://www.w3.org/1999/xlink" viewBox="0 0 23.5563 18.7375">
 <g>
  <rect height="18.7375" opacity="0" width="23.5563" x="0" y="0"/>
  <path d="M11.6315 18.4876L22.5183 18.4876C22.935 18.4876 23.195 18.2336 23.195 17.8371C23.195 17.4406 22.935 17.1896 22.5183 17.1896L12.9565 17.1896L12.9565 17.1371L18.4464 11.483C21.4407 8.4167 22.4018 6.96865 22.4018 5.05996C22.4018 2.204 19.9586 0 16.6749 0C14.1516 0 11.9781 1.34268 11.2006 3.44707C11.0104 3.93262 10.9141 4.4124 10.9141 4.7626C10.9141 5.20049 11.1448 5.47705 11.5669 5.47705C11.9439 5.47705 12.1261 5.28135 12.2309 4.87139C12.3036 4.45889 12.3996 4.05381 12.5956 3.68848C13.2566 2.30596 14.7089 1.29053 16.6749 1.29053C19.0555 1.29053 20.933 3.00977 20.933 5.12803C20.933 6.68877 20.1842 7.81777 17.4759 10.6129L11.3466 16.9542C11.0063 17.2944 10.8962 17.5013 10.8962 17.8011C10.8962 18.2336 11.1953 18.4876 11.6315 18.4876Z" fill="white"/>
  <path d="M5.99199 18.5914C6.43936 18.5914 6.72637 18.3111 6.72637 17.8607L6.72637 0.833791C6.72637 0.340919 6.41475 0.0478518 5.92022 0.0478518C5.56582 0.0478518 5.35898 0.145215 5.03086 0.359474L0.426466 3.24561C0.116211 3.45918 0 3.63975 0 3.90957C0 4.25586 0.24961 4.51153 0.616115 4.51153C0.82969 4.51153 0.945901 4.45157 1.0958 4.35489L5.25088 1.8086L5.28691 1.8086L5.28691 17.8607C5.28691 18.3111 5.5544 18.5914 5.99199 18.5914Z" fill="white"/>
 </g>
</svg>
