<?xml version="1.0" encoding="UTF-8"?>
<!--Generator: Apple Native CoreSVG 326-->
<!DOCTYPE svg
PUBLIC "-//W3C//DTD SVG 1.1//EN"
       "http://www.w3.org/Graphics/SVG/1.1/DTD/svg11.dtd">
<svg version="1.1" xmlns="http://www.w3.org/2000/svg" xmlns:xlink="http://www.w3.org/1999/xlink" viewBox="0 0 12.7825 27.0647">
 <g>
  <rect height="27.0647" opacity="0" width="12.7825" x="0" y="0"/>
  <path d="M0.0014086 1.10297L0.226702 5.37133C0.262737 6.11254 0.543596 6.55639 1.10092 6.96352L3.73266 8.89076C4.06166 9.11908 4.25698 9.30766 4.25698 9.89057L4.25698 25.8395C4.25698 26.4831 4.76616 26.9953 5.406 26.9953C6.04282 26.9953 6.56176 26.4831 6.56176 25.8395L6.56176 17.1978C6.56176 16.9981 6.73217 16.8277 6.93188 16.8277C7.13159 16.8277 7.302 16.9981 7.302 17.1978L7.302 25.8395C7.302 26.4831 7.81118 26.9953 8.45102 26.9953C9.08784 26.9953 9.60678 26.4831 9.60678 25.8395L9.60678 11.6548C9.60678 11.4551 9.77045 11.2884 9.97016 11.2884C10.1729 11.2884 10.3366 11.4551 10.3366 11.6548L10.3366 16.334C10.3366 16.9183 10.7969 17.3787 11.3812 17.3787C11.9594 17.3787 12.4198 16.9183 12.4198 16.334L12.4198 11.1133C12.4198 8.4516 10.4821 6.68363 7.75932 6.68363L5.35717 6.68363C4.63315 6.68363 4.17719 6.54994 3.58754 6.12328L2.31293 5.21068L2.08159 1.0016C2.05229 0.417325 1.56567-0.0399998 0.981389 0.00277373C0.403167 0.0516019-0.0278883 0.531485 0.0014086 1.10297ZM6.93188 5.25551C8.38364 5.25551 9.54477 4.08764 9.54477 2.63588C9.54477 1.18109 8.38364 0.0229886 6.93188 0.0229886C5.47709 0.0229886 4.31225 1.18109 4.31225 2.63588C4.31225 4.08764 5.47709 5.25551 6.93188 5.25551Z" fill="white"/>
 </g>
</svg>
