<?xml version="1.0" encoding="UTF-8"?>
<!--Generator: Apple Native CoreSVG 326-->
<!DOCTYPE svg
PUBLIC "-//W3C//DTD SVG 1.1//EN"
       "http://www.w3.org/Graphics/SVG/1.1/DTD/svg11.dtd">
<svg version="1.1" xmlns="http://www.w3.org/2000/svg" xmlns:xlink="http://www.w3.org/1999/xlink" viewBox="0 0 15.3955 18.6049">
 <g>
  <rect height="18.6049" opacity="0" width="15.3955" x="0" y="0"/>
  <path d="M0.690236 18.5756C1.09785 18.5756 1.30537 18.4092 1.46202 17.9716L3.49502 12.5883L11.5257 12.5883L13.5587 17.9716C13.7184 18.4092 13.9259 18.5756 14.3335 18.5756C14.7606 18.5756 15.0342 18.3253 15.0342 17.9116C15.0342 17.7752 15.0042 17.6357 14.9442 17.4656L8.50567 0.71924C8.32813 0.256348 8.01651 0 7.51826 0C7.02373 0 6.69931 0.243555 6.53525 0.712502L0.0899416 17.4724C0.0299805 17.6425 0 17.7819 0 17.9153C0 18.332 0.263087 18.5756 0.690236 18.5756ZM3.91035 11.3486L7.48223 1.88907L7.5415 1.88907L11.1066 11.3486Z" fill="white"/>
 </g>
</svg>
